<svg width="18" height="17" viewBox="0 0 18 17" fill="none" xmlns="http://www.w3.org/2000/svg">
<path d="M15.5886 7.89019L8.60205 1.82639C8.54842 1.78016 8.48 1.75427 8.40787 1.75427H6.77126C6.63441 1.75427 6.57153 1.92441 6.67509 2.01317L13.1513 7.63499H2.32928C2.24791 7.63499 2.18134 7.70157 2.18134 7.78294V8.89251C2.18134 8.97388 2.24791 9.04045 2.32928 9.04045H13.1494L6.67324 14.6623C6.56968 14.7529 6.63256 14.9212 6.76941 14.9212H8.4615C8.49664 14.9212 8.53177 14.9082 8.55766 14.8842L15.5886 8.78525C15.6527 8.72958 15.704 8.66082 15.7392 8.58362C15.7743 8.50641 15.7925 8.42256 15.7925 8.33772C15.7925 8.25288 15.7743 8.16903 15.7392 8.09183C15.704 8.01462 15.6527 7.94587 15.5886 7.89019Z" fill="#0E0616"/>
</svg>
