<svg width="184" height="13" viewBox="0 0 184 13" fill="none" xmlns="http://www.w3.org/2000/svg">
<path opacity="currentOpacity" d="M0.69693 12V0.446427H4.57766C6.96988 0.446427 8.81278 1.10207 8.81278 3.3171C8.81278 4.34487 8.19258 5.46124 6.82812 5.81565V5.88653C8.4761 6.18777 9.34439 7.05606 9.34439 8.59772C9.34439 10.9545 7.41289 12 4.91434 12H0.69693ZM3.3018 5.08912H4.45361C5.72947 5.08912 6.26107 4.55751 6.26107 3.6715C6.26107 2.82093 5.69403 2.48425 4.47133 2.48425H3.3018V5.08912ZM3.3018 9.96218H4.7017C6.11931 9.96218 6.79268 9.44829 6.79268 8.4028C6.79268 7.39275 6.13703 6.96746 4.7017 6.96746H3.3018V9.96218ZM10.8968 12V0.446427H14.9902C17.4356 0.446427 19.4557 1.297 19.4557 4.04363C19.4557 5.74477 18.6229 6.8257 17.4002 7.37503L20.005 12H17.0812L14.8662 7.83575H13.5017V12H10.8968ZM13.5017 5.76249H14.7776C16.1597 5.76249 16.8863 5.17772 16.8863 4.04363C16.8863 2.90954 16.1597 2.51969 14.7776 2.51969H13.5017V5.76249ZM21.5575 12V0.446427H29.2126V2.64373H24.1801V4.96508H28.4506V7.14466H24.1801V9.80269H29.3898V12H21.5575ZM31.3676 12V0.446427H34.0433L36.471 6.18777L37.4633 8.73948H37.5342C37.4101 7.51679 37.1621 5.90425 37.1621 4.53979V0.446427H39.6606V12H36.9849L34.5572 6.24093L33.5649 3.72466H33.494C33.618 5.00052 33.8661 6.54218 33.8661 7.90663V12H31.3676ZM41.7092 12V0.446427H44.8989C48.2657 0.446427 50.463 2.20073 50.463 6.17005C50.463 10.1394 48.2657 12 45.0584 12H41.7092ZM44.3318 9.8913H44.7571C46.5646 9.8913 47.7873 8.9344 47.7873 6.17005C47.7873 3.4057 46.5646 2.55513 44.7571 2.55513H44.3318V9.8913ZM55.0633 6.15233L54.7975 7.21554H57.2252L56.9594 6.15233C56.6582 5.00052 56.3038 3.65378 56.038 2.43109H55.9671C55.6836 3.65378 55.3646 5.00052 55.0633 6.15233ZM50.8991 12L54.4963 0.446427H57.6151L61.2123 12H58.4479L57.7568 9.25337H54.2659L53.5571 12H50.8991ZM62.1799 12V0.446427H64.8557L67.2834 6.18777L68.2757 8.73948H68.3466C68.2225 7.51679 67.9745 5.90425 67.9745 4.53979V0.446427H70.473V12H67.7973L65.3696 6.24093L64.3773 3.72466H64.3064C64.4304 5.00052 64.6785 6.54218 64.6785 7.90663V12H62.1799ZM82.5798 12V0.446427H85.3087L86.4428 4.53979L86.8326 6.13461H86.9035L87.2933 4.53979L88.4274 0.446427H91.1564V12H88.959V8.42052C88.959 7.12694 89.1894 4.30943 89.2957 3.06902H89.2426L88.3566 6.15233L87.4706 8.9344H86.1947L85.291 6.15233L84.4581 3.06902H84.405C84.529 4.30943 84.7416 7.12694 84.7416 8.42052V12H82.5798ZM98.1312 12.2126C95.2605 12.2126 92.7797 10.1748 92.7797 6.29409C92.7797 2.46653 95.2074 0.233784 98.2907 0.233784C99.7615 0.233784 100.966 0.942593 101.746 1.70456L100.311 3.3171C99.7615 2.82093 99.1412 2.48425 98.2907 2.48425C96.6604 2.48425 95.4554 3.88415 95.4554 6.20549C95.4554 8.58 96.6604 9.96218 98.397 9.96218C99.2298 9.96218 99.9209 9.55461 100.488 8.9344L101.923 10.5115C100.984 11.6279 99.6906 12.2126 98.1312 12.2126ZM103.99 12V0.446427H106.595V9.80269H111.733V12H103.99ZM116.688 6.15233L116.422 7.21554H118.85L118.584 6.15233C118.283 5.00052 117.929 3.65378 117.663 2.43109H117.592C117.308 3.65378 116.989 5.00052 116.688 6.15233ZM112.524 12L116.121 0.446427H119.24L122.837 12H120.073L119.382 9.25337H115.891L115.182 12H112.524ZM127.987 12.2126C125.169 12.2126 123.769 10.5469 123.769 7.55223V0.446427H126.374V7.81803C126.374 9.20021 126.888 9.96218 127.987 9.96218C129.085 9.96218 129.617 9.20021 129.617 7.81803V0.446427H132.133V7.55223C132.133 10.5469 130.786 12.2126 127.987 12.2126ZM138.984 12.2126C136.025 12.2126 133.686 10.1748 133.686 6.29409C133.686 2.43109 136.025 0.233784 139.019 0.233784C140.579 0.233784 141.66 0.960313 142.404 1.70456L140.969 3.3171C140.473 2.82093 139.941 2.48425 139.019 2.48425C137.513 2.48425 136.379 3.88415 136.379 6.20549C136.379 8.58 137.301 9.96218 139.126 9.96218C139.569 9.96218 140.012 9.83814 140.26 9.60777V7.62311H138.576V5.49669H142.599V10.8127C141.819 11.5393 140.455 12.2126 138.984 12.2126ZM144.311 12V0.446427H146.916V4.8942H150.07V0.446427H152.675V12H150.07V7.1801H146.916V12H144.311ZM155.344 12V0.446427H157.949V9.80269H163.087V12H155.344ZM165.03 12V9.80269H167.723V2.64373H165.03V0.446427H173.039V2.64373H170.346V9.80269H173.039V12H165.03ZM175.159 12V0.446427H177.834L180.262 6.18777L181.254 8.73948H181.325C181.201 7.51679 180.953 5.90425 180.953 4.53979V0.446427H183.452V12H180.776L178.348 6.24093L177.356 3.72466H177.285C177.409 5.00052 177.657 6.54218 177.657 7.90663V12H175.159Z" fill="currentColor"/>
</svg>
