<svg width="256" height="30" viewBox="0 0 256 30" fill="none" xmlns="http://www.w3.org/2000/svg">
<path d="M30 15C16.6154 10.5385 15.5 5.33333 15.5 0.5C15.5 14.2267 6.075 15 1 15C13.2692 18.3462 15.5 24.9083 15.5 29.5C15.5 15.3867 25.1667 15 30 15Z" fill="#0E0616" stroke="#0E0616" stroke-width="1.89231" stroke-miterlimit="6.00562"/>
<path d="M44.7266 22.0938C44.6641 22.0312 44.6328 21.8984 44.6328 21.6953C44.6328 21.3828 44.6641 21.2266 44.7266 21.2266C44.8516 21.2266 45.0312 21.2031 45.2656 21.1562C45.5 21.1094 45.7188 21.0469 45.9219 20.9688C46.125 20.875 46.2422 20.7891 46.2734 20.7109C46.3672 20.3516 46.4141 19.6641 46.4141 18.6484V9.78906C46.4141 8.91406 46.3672 8.30469 46.2734 7.96094C46.2422 7.86719 46.1172 7.77344 45.8984 7.67969C45.6953 7.57031 45.4766 7.48437 45.2422 7.42188C45.0078 7.34375 44.8281 7.30469 44.7031 7.30469C44.6406 7.30469 44.6094 7.16406 44.6094 6.88281C44.6094 6.63281 44.6328 6.48438 44.6797 6.4375C45.3047 6.46875 45.8984 6.5 46.4609 6.53125C47.0391 6.54687 47.5938 6.55469 48.125 6.55469L51.6641 6.50781C52.2422 6.50781 52.8281 6.58594 53.4219 6.74219C54.0156 6.88281 54.5938 7.10937 55.1562 7.42188C55.7031 7.73438 56.1484 8.17188 56.4922 8.73438C56.8359 9.29688 57.0078 9.94531 57.0078 10.6797C57.0078 11.2109 56.8906 11.6875 56.6562 12.1094C56.4375 12.5312 56.1797 12.8828 55.8828 13.1641C55.5859 13.4297 55.3125 13.6094 55.0625 13.7031C54.9375 13.75 54.8984 13.7969 54.9453 13.8438C55.3203 13.9062 55.7031 14.1016 56.0938 14.4297C56.5 14.7578 56.8438 15.1953 57.125 15.7422C57.4062 16.2734 57.5469 16.8984 57.5469 17.6172C57.5469 18.5078 57.2969 19.2891 56.7969 19.9609C56.2969 20.6328 55.6016 21.1484 54.7109 21.5078C53.8203 21.8516 52.7812 22.0156 51.5938 22L48.1484 21.9531C47.6797 21.9531 47.1562 21.9688 46.5781 22C46.0156 22.0156 45.5625 22.0312 45.2188 22.0469L44.7266 22.0938ZM50.9141 13.3047C51.5234 13.3047 51.9688 13.2344 52.25 13.0938C52.5 12.9688 52.6797 12.8516 52.7891 12.7422C52.9141 12.6328 53.0469 12.4062 53.1875 12.0625C53.3438 11.7031 53.4219 11.25 53.4219 10.7031C53.4219 8.76562 52.7031 7.79688 51.2656 7.79688C50.5469 7.79688 50.0938 7.82813 49.9062 7.89062C49.7656 7.90625 49.6953 8 49.6953 8.17188V12.9766C49.6953 13.1953 50.1016 13.3047 50.9141 13.3047ZM51.6172 20.7109C53.2266 20.7109 54.0312 19.7656 54.0312 17.875C54.0312 15.7031 53.0703 14.6172 51.1484 14.6172C50.6641 14.6172 50.2656 14.6562 49.9531 14.7344C49.7812 14.8125 49.6953 14.8828 49.6953 14.9453V20.2188C49.6953 20.375 49.75 20.4844 49.8594 20.5469C50.0156 20.6562 50.6016 20.7109 51.6172 20.7109ZM58.4263 22.0938C58.3638 22.0312 58.3325 21.8672 58.3325 21.6016C58.3325 21.3516 58.3638 21.2266 58.4263 21.2266C58.5513 21.2266 58.7309 21.1953 58.9653 21.1328C59.1997 21.0547 59.4184 20.9688 59.6216 20.875C59.8247 20.7812 59.9341 20.7031 59.9497 20.6406C60.0591 20.2031 60.1138 19.6094 60.1138 18.8594V15.6484C60.1138 14.7734 59.9731 14.1875 59.6919 13.8906C59.5669 13.7344 59.395 13.625 59.1763 13.5625C58.9731 13.5 58.7934 13.4609 58.6372 13.4453C58.4809 13.4141 58.4028 13.3828 58.4028 13.3516C58.4028 12.8047 58.4419 12.5312 58.52 12.5312C58.9263 12.5312 59.4888 12.4453 60.2075 12.2734C60.9419 12.0859 61.7153 11.9062 62.5278 11.7344L63.0669 11.6172C63.145 11.6172 63.2231 11.6719 63.3013 11.7812C63.3794 11.875 63.4184 11.9531 63.4184 12.0156C63.4028 12.1094 63.3794 12.2969 63.3481 12.5781C63.3325 12.8594 63.3169 13.0156 63.3013 13.0469C64.0825 12.0312 64.9653 11.5234 65.9497 11.5234C66.6528 11.5234 67.3247 11.8125 67.9653 12.3906C67.9653 13.2031 67.8638 13.8047 67.6606 14.1953C67.4731 14.5859 67.1216 14.7812 66.6059 14.7812C66.2934 14.7812 65.9341 14.6016 65.5278 14.2422C65.1216 13.8828 64.7622 13.7031 64.4497 13.7031C64.1372 13.7031 63.8872 13.8281 63.6997 14.0781C63.5122 14.3125 63.3716 14.6172 63.2778 14.9922C63.1997 15.3672 63.1606 15.7578 63.1606 16.1641V18.5312C63.1606 19.5469 63.2153 20.25 63.3247 20.6406C63.3559 20.7031 63.4653 20.7812 63.6528 20.875C63.8403 20.9688 64.0434 21.0547 64.2622 21.1328C64.4809 21.1953 64.6294 21.2266 64.7075 21.2266C64.7388 21.2266 64.7622 21.2891 64.7778 21.4141C64.7934 21.5391 64.8013 21.6719 64.8013 21.8125C64.8013 21.9531 64.7856 22.0469 64.7544 22.0938C64.6294 22.0781 64.3638 22.0547 63.9575 22.0234C63.5513 22.0078 63.1216 21.9844 62.6684 21.9531C62.2309 21.9219 61.8872 21.9062 61.6372 21.9062C61.4497 21.9062 61.1919 21.9141 60.8638 21.9297C60.5513 21.9453 60.2231 21.9688 59.8794 22C59.5356 22.0156 59.2309 22.0312 58.9653 22.0469C58.6997 22.0781 58.52 22.0938 58.4263 22.0938ZM73.7431 22.1641C72.79 22.1641 71.9072 21.9219 71.0947 21.4375C70.2978 20.9531 69.6572 20.3047 69.1728 19.4922C68.7041 18.6797 68.4697 17.7891 68.4697 16.8203C68.4697 15.8203 68.6806 14.9219 69.1025 14.125C69.54 13.3281 70.1416 12.6953 70.9072 12.2266C71.6728 11.7578 72.5556 11.5234 73.5556 11.5234C74.54 11.5234 75.3759 11.7578 76.0634 12.2266C76.7666 12.6797 77.2978 13.25 77.6572 13.9375C78.0322 14.6094 78.2197 15.2891 78.2197 15.9766C78.2197 16.3359 78.1416 16.5703 77.9853 16.6797C77.8447 16.7891 77.5556 16.8438 77.1181 16.8438H71.8213C71.7275 16.8438 71.6806 16.8984 71.6806 17.0078C71.6806 17.5703 71.7822 18.1016 71.9853 18.6016C72.2041 19.1016 72.5166 19.5078 72.9228 19.8203C73.3447 20.1328 73.8525 20.2891 74.4463 20.2891C74.9775 20.2891 75.4697 20.2109 75.9228 20.0547C76.2353 19.9609 76.4775 19.875 76.6494 19.7969C76.8213 19.7188 76.9775 19.6328 77.1181 19.5391C77.2744 19.4297 77.4541 19.2969 77.6572 19.1406C77.7978 19.2031 77.8681 19.3516 77.8681 19.5859C77.8681 19.7891 77.8369 19.9453 77.7744 20.0547C77.6806 20.3047 77.4306 20.5938 77.0244 20.9219C76.6338 21.25 76.1494 21.5391 75.5713 21.7891C75.0088 22.0391 74.3994 22.1641 73.7431 22.1641ZM71.8447 15.5547H74.8213C75.04 15.5547 75.1494 15.4062 75.1494 15.1094C75.1494 14.5156 74.9853 13.9844 74.6572 13.5156C74.3447 13.0469 73.9384 12.8125 73.4384 12.8125C72.9853 12.8125 72.6259 12.9766 72.3603 13.3047C72.1103 13.6172 71.9306 13.9688 71.8213 14.3594C71.7275 14.75 71.6806 15.0703 71.6806 15.3203C71.6806 15.4766 71.7353 15.5547 71.8447 15.5547ZM79.0053 22.0938C78.9428 22.0312 78.9116 21.8672 78.9116 21.6016C78.9116 21.3516 78.9428 21.2266 79.0053 21.2266C79.1303 21.2266 79.3022 21.1953 79.5209 21.1328C79.7553 21.0547 79.9741 20.9688 80.1772 20.875C80.3959 20.7812 80.5131 20.7031 80.5288 20.6406C80.6381 20.2031 80.6928 19.6094 80.6928 18.8594V15.6484C80.6928 14.7734 80.5522 14.1875 80.2709 13.8906C80.1459 13.7344 79.9741 13.625 79.7553 13.5625C79.5522 13.5 79.3725 13.4609 79.2163 13.4453C79.06 13.4141 78.9819 13.3828 78.9819 13.3516C78.9819 12.8047 79.0209 12.5312 79.0991 12.5312C79.5053 12.5312 80.0834 12.4453 80.8334 12.2734C81.5834 12.0859 82.435 11.8906 83.3881 11.6875L83.5053 11.6641C83.5209 11.6484 83.5522 11.6406 83.5991 11.6406L83.6459 11.6172C83.7241 11.6172 83.8022 11.6719 83.8803 11.7812C83.9741 11.875 84.0131 11.9531 83.9975 12.0156L83.9038 12.7422C83.9038 12.8203 83.9116 12.8672 83.9272 12.8828C83.9584 12.8828 84.0131 12.8438 84.0913 12.7656C84.9506 11.9531 86.0366 11.5469 87.3491 11.5469C88.2553 11.5469 88.9897 11.9297 89.5522 12.6953C90.1303 13.4609 90.4194 14.625 90.4194 16.1875V18.5078C90.4194 19.5391 90.4741 20.25 90.5834 20.6406C90.6147 20.7031 90.7319 20.7812 90.935 20.875C91.1381 20.9688 91.3491 21.0547 91.5678 21.1328C91.8022 21.1953 91.9663 21.2266 92.06 21.2266C92.0913 21.2266 92.1147 21.2891 92.1303 21.4141C92.1459 21.5391 92.1538 21.6719 92.1538 21.8125C92.1538 21.9531 92.1381 22.0469 92.1069 22.0938C92.0131 22.0938 91.8334 22.0781 91.5678 22.0469C91.3022 22.0312 90.9897 22.0156 90.6303 22C90.2866 21.9688 89.9584 21.9453 89.6459 21.9297C89.3334 21.9141 89.0834 21.9062 88.8959 21.9062C88.6459 21.9062 88.2944 21.9219 87.8413 21.9531C87.4038 21.9844 86.9819 22.0078 86.5756 22.0234C86.1694 22.0547 85.9038 22.0781 85.7788 22.0938C85.7163 22.0312 85.685 21.8672 85.685 21.6016C85.685 21.3516 85.7163 21.2266 85.7788 21.2266C85.9038 21.2266 86.0678 21.1953 86.2709 21.1328C86.4897 21.0547 86.6928 20.9688 86.8803 20.875C87.0834 20.7812 87.1928 20.7031 87.2084 20.6406C87.3178 20.2031 87.3725 19.6094 87.3725 18.8594V16.75C87.3725 15.5938 87.2084 14.7734 86.8803 14.2891C86.5678 13.7891 86.06 13.5391 85.3569 13.5391C84.8725 13.5391 84.4819 13.6328 84.185 13.8203C83.8881 13.9922 83.7397 14.2422 83.7397 14.5703V18.5078C83.7397 19.5391 83.7944 20.25 83.9038 20.6406C83.935 20.7031 84.0444 20.7812 84.2319 20.875C84.4194 20.9688 84.6225 21.0547 84.8413 21.1328C85.06 21.1953 85.2084 21.2266 85.2866 21.2266C85.3178 21.2266 85.3413 21.2891 85.3569 21.4141C85.3725 21.5391 85.3803 21.6719 85.3803 21.8125C85.3803 21.9531 85.3647 22.0469 85.3334 22.0938C85.2084 22.0781 84.9428 22.0547 84.5366 22.0234C84.1303 22.0078 83.7006 21.9844 83.2475 21.9531C82.81 21.9219 82.4663 21.9062 82.2163 21.9062C82.0288 21.9062 81.7709 21.9141 81.4428 21.9297C81.1303 21.9453 80.8022 21.9688 80.4584 22C80.1147 22.0156 79.81 22.0312 79.5444 22.0469C79.2788 22.0781 79.0991 22.0938 79.0053 22.0938ZM97.4394 22.1406C96.5956 22.1406 95.7988 21.9297 95.0488 21.5078C94.3144 21.0859 93.7128 20.4922 93.2441 19.7266C92.7909 18.9609 92.5644 18.0625 92.5644 17.0312C92.5644 15.9844 92.8066 15.0469 93.2909 14.2188C93.7909 13.3906 94.4628 12.7344 95.3066 12.25C96.1659 11.7656 97.1269 11.5234 98.1894 11.5234C98.8456 11.5234 99.3925 11.5938 99.83 11.7344C99.8769 11.7344 99.9003 11.625 99.9003 11.4062V9.55469C99.9003 8.89844 99.8534 8.33594 99.7597 7.86719C99.6972 7.61719 99.2909 7.49219 98.5409 7.49219H98.33C98.2363 7.49219 98.1894 7.33594 98.1894 7.02344C98.1894 6.75781 98.2363 6.625 98.33 6.625C99.2363 6.54687 100.088 6.41406 100.885 6.22656C101.697 6.03906 102.275 5.89062 102.619 5.78125L102.853 5.71094H102.9C102.963 5.71094 103.025 5.75781 103.088 5.85156C103.15 5.94531 103.189 6.03125 103.205 6.10938C103.033 6.84375 102.947 7.63281 102.947 8.47656V18.5547C102.947 18.8984 102.963 19.2734 102.994 19.6797C103.025 20.0703 103.096 20.3203 103.205 20.4297C103.33 20.5234 103.471 20.5781 103.627 20.5938C103.783 20.5938 103.986 20.6094 104.236 20.6406L104.471 20.6641C104.518 20.6797 104.541 20.7734 104.541 20.9453C104.541 21.3359 104.494 21.5312 104.4 21.5312C104.01 21.5469 103.557 21.5938 103.041 21.6719C102.541 21.75 102.049 21.8281 101.564 21.9062C101.08 21.9844 100.689 22.0469 100.393 22.0938L100.041 22.1406C99.9472 22.1562 99.9003 22.0234 99.9003 21.7422V21.25C99.9003 21.125 99.8691 21.0938 99.8066 21.1562C99.1503 21.8125 98.3613 22.1406 97.4394 22.1406ZM98.0488 20.7109C98.58 20.7109 99.0175 20.5625 99.3613 20.2656C99.7206 19.9531 99.9003 19.5781 99.9003 19.1406V14.875C99.9003 14.6875 99.8847 14.5078 99.8534 14.3359C99.8222 14.1641 99.7519 13.9453 99.6425 13.6797C99.5331 13.4141 99.3378 13.2031 99.0566 13.0469C98.7909 12.875 98.455 12.7891 98.0488 12.7891C97.3144 12.7891 96.7753 13.0859 96.4316 13.6797C96.1034 14.2578 95.9394 15.1875 95.9394 16.4688C95.9394 19.2969 96.6425 20.7109 98.0488 20.7109ZM108.116 22.1641C107.256 22.1641 106.569 21.9297 106.053 21.4609C105.553 20.9766 105.303 20.375 105.303 19.6562C105.303 19.0469 105.491 18.5156 105.866 18.0625C106.256 17.6094 106.741 17.25 107.319 16.9844C107.537 16.8906 107.741 16.8125 107.928 16.75C108.116 16.6719 108.287 16.6016 108.444 16.5391C109.037 16.3516 109.514 16.2188 109.873 16.1406C110.233 16.0469 110.498 15.9688 110.67 15.9062C110.811 15.8594 110.881 15.7422 110.881 15.5547V14.7109C110.881 13.4297 110.491 12.7891 109.709 12.7891C108.803 12.7891 108.35 13.3125 108.35 14.3594C108.35 14.7031 108.209 14.9609 107.928 15.1328C107.647 15.2891 107.334 15.3672 106.991 15.3672C106.272 15.3672 105.78 15.1328 105.514 14.6641C105.514 14.2578 105.655 13.8672 105.936 13.4922C106.233 13.1172 106.616 12.7812 107.084 12.4844C107.569 12.1719 108.108 11.9297 108.702 11.7578C109.311 11.5703 109.92 11.4766 110.53 11.4766C111.623 11.4766 112.459 11.7812 113.037 12.3906C113.631 12.9844 113.928 14.0703 113.928 15.6484V19.4453C113.928 19.9766 114.116 20.2422 114.491 20.2422C114.772 20.2422 115.037 20.1406 115.287 19.9375C115.397 20 115.452 20.1172 115.452 20.2891C115.452 20.6953 115.397 20.9844 115.287 21.1562C115.069 21.3594 114.709 21.5781 114.209 21.8125C113.725 22.0312 113.264 22.1406 112.827 22.1406C112.452 22.1406 112.092 22.0312 111.748 21.8125C111.405 21.5781 111.178 21.3125 111.069 21.0156C111.053 21.0156 110.967 21.0703 110.811 21.1797C110.655 21.2891 110.537 21.375 110.459 21.4375C110.147 21.6406 109.787 21.8125 109.381 21.9531C108.975 22.0938 108.553 22.1641 108.116 22.1641ZM109.592 20.4766C109.998 20.4766 110.311 20.3828 110.53 20.1953C110.764 19.9922 110.881 19.75 110.881 19.4688V17.1016L109.662 17.5234C109.334 17.6328 109.03 17.7969 108.748 18.0156C108.483 18.2344 108.35 18.5234 108.35 18.8828C108.35 19.4453 108.467 19.8516 108.702 20.1016C108.952 20.3516 109.248 20.4766 109.592 20.4766ZM116.12 22.0938C116.058 22.0312 116.026 21.8672 116.026 21.6016C116.026 21.3516 116.058 21.2266 116.12 21.2266C116.245 21.2266 116.417 21.1953 116.636 21.1328C116.87 21.0547 117.089 20.9688 117.292 20.875C117.511 20.7812 117.628 20.7031 117.643 20.6406C117.753 20.2031 117.808 19.6094 117.808 18.8594V15.6484C117.808 14.7734 117.667 14.1875 117.386 13.8906C117.261 13.7344 117.089 13.625 116.87 13.5625C116.667 13.5 116.487 13.4609 116.331 13.4453C116.175 13.4141 116.097 13.3828 116.097 13.3516C116.097 12.8047 116.136 12.5312 116.214 12.5312C116.62 12.5312 117.198 12.4453 117.948 12.2734C118.698 12.0859 119.55 11.8906 120.503 11.6875L120.62 11.6641C120.636 11.6484 120.667 11.6406 120.714 11.6406L120.761 11.6172C120.839 11.6172 120.917 11.6719 120.995 11.7812C121.089 11.875 121.128 11.9531 121.112 12.0156L121.018 12.7422C121.018 12.8203 121.026 12.8672 121.042 12.8828C121.073 12.8828 121.128 12.8438 121.206 12.7656C122.065 11.9531 123.151 11.5469 124.464 11.5469C125.37 11.5469 126.104 11.9297 126.667 12.6953C127.245 13.4609 127.534 14.625 127.534 16.1875V18.5078C127.534 19.5391 127.589 20.25 127.698 20.6406C127.729 20.7031 127.847 20.7812 128.05 20.875C128.253 20.9688 128.464 21.0547 128.683 21.1328C128.917 21.1953 129.081 21.2266 129.175 21.2266C129.206 21.2266 129.229 21.2891 129.245 21.4141C129.261 21.5391 129.268 21.6719 129.268 21.8125C129.268 21.9531 129.253 22.0469 129.222 22.0938C129.128 22.0938 128.948 22.0781 128.683 22.0469C128.417 22.0312 128.104 22.0156 127.745 22C127.401 21.9688 127.073 21.9453 126.761 21.9297C126.448 21.9141 126.198 21.9062 126.011 21.9062C125.761 21.9062 125.409 21.9219 124.956 21.9531C124.518 21.9844 124.097 22.0078 123.69 22.0234C123.284 22.0547 123.018 22.0781 122.893 22.0938C122.831 22.0312 122.8 21.8672 122.8 21.6016C122.8 21.3516 122.831 21.2266 122.893 21.2266C123.018 21.2266 123.183 21.1953 123.386 21.1328C123.604 21.0547 123.808 20.9688 123.995 20.875C124.198 20.7812 124.308 20.7031 124.323 20.6406C124.433 20.2031 124.487 19.6094 124.487 18.8594V16.75C124.487 15.5938 124.323 14.7734 123.995 14.2891C123.683 13.7891 123.175 13.5391 122.472 13.5391C121.987 13.5391 121.597 13.6328 121.3 13.8203C121.003 13.9922 120.854 14.2422 120.854 14.5703V18.5078C120.854 19.5391 120.909 20.25 121.018 20.6406C121.05 20.7031 121.159 20.7812 121.347 20.875C121.534 20.9688 121.737 21.0547 121.956 21.1328C122.175 21.1953 122.323 21.2266 122.401 21.2266C122.433 21.2266 122.456 21.2891 122.472 21.4141C122.487 21.5391 122.495 21.6719 122.495 21.8125C122.495 21.9531 122.479 22.0469 122.448 22.0938C122.323 22.0781 122.058 22.0547 121.651 22.0234C121.245 22.0078 120.815 21.9844 120.362 21.9531C119.925 21.9219 119.581 21.9062 119.331 21.9062C119.143 21.9062 118.886 21.9141 118.558 21.9297C118.245 21.9453 117.917 21.9688 117.573 22C117.229 22.0156 116.925 22.0312 116.659 22.0469C116.393 22.0781 116.214 22.0938 116.12 22.0938ZM134.121 22.0938C134.058 22.0312 134.027 21.8984 134.027 21.6953C134.027 21.3984 134.051 21.25 134.098 21.25C134.285 21.25 134.558 21.1953 134.918 21.0859C135.293 20.9766 135.637 20.8359 135.949 20.6641C136.277 20.4766 136.449 20.2734 136.465 20.0547L136.558 18.9297C136.73 16.1328 136.832 13.8047 136.863 11.9453C136.894 10.0859 136.933 8.85156 136.98 8.24219C136.98 8.07031 136.957 7.92969 136.91 7.82031C136.879 7.72656 136.746 7.64844 136.512 7.58594C136.277 7.50781 136.027 7.44531 135.762 7.39844C135.512 7.35156 135.316 7.32812 135.176 7.32812C135.113 7.32812 135.082 7.16406 135.082 6.83594C135.082 6.66406 135.113 6.54687 135.176 6.48438C135.332 6.48438 135.566 6.5 135.879 6.53125C136.207 6.54687 136.551 6.57031 136.91 6.60156C137.285 6.61719 137.605 6.625 137.871 6.625C138.09 6.625 138.363 6.61719 138.691 6.60156C139.035 6.57031 139.363 6.54687 139.676 6.53125C139.988 6.5 140.207 6.48438 140.332 6.48438C140.41 6.73437 140.605 7.22656 140.918 7.96094C141.246 8.69531 141.691 9.67188 142.254 10.8906C142.816 12.125 143.308 13.2188 143.73 14.1719C144.152 15.1094 144.496 15.9219 144.762 16.6094H144.808C144.84 16.6094 144.855 16.6016 144.855 16.5859C145.449 15.1016 145.988 13.7422 146.473 12.5078C146.957 11.2734 147.371 10.1719 147.715 9.20312L148.488 6.57812C148.629 6.59375 148.855 6.60938 149.168 6.625C149.496 6.625 149.902 6.625 150.387 6.625L153.34 6.48438C153.402 6.5625 153.433 6.6875 153.433 6.85938C153.433 7.1875 153.394 7.35156 153.316 7.35156H153.293C152.902 7.35156 152.574 7.44531 152.308 7.63281C152.058 7.80469 151.949 8.125 151.98 8.59375L152.449 18.4375C152.496 19.375 152.613 20.0938 152.801 20.5938C152.848 20.6875 152.957 20.7812 153.129 20.875C153.316 20.9688 153.512 21.0547 153.715 21.1328C153.918 21.1953 154.066 21.2266 154.16 21.2266C154.223 21.2266 154.254 21.3828 154.254 21.6953C154.254 21.8359 154.238 21.9688 154.207 22.0938C154.098 22.0781 153.855 22.0547 153.48 22.0234C153.105 22.0078 152.707 21.9844 152.285 21.9531C151.863 21.9219 151.512 21.9062 151.23 21.9062C150.949 21.9062 150.566 21.9219 150.082 21.9531C149.598 21.9844 149.137 22.0078 148.699 22.0234C148.277 22.0547 147.988 22.0781 147.832 22.0938C147.754 22.0156 147.715 21.8906 147.715 21.7188C147.715 21.3906 147.738 21.2266 147.785 21.2266C147.91 21.2266 148.074 21.1953 148.277 21.1328C148.48 21.0547 148.676 20.9688 148.863 20.875C149.066 20.7656 149.191 20.6641 149.238 20.5703C149.363 20.3203 149.426 20.1016 149.426 19.9141C149.426 19.7422 149.418 19.5391 149.402 19.3047C149.402 19.0703 149.394 18.8125 149.379 18.5312L149.191 12.5781C149.129 11.5312 149.066 11.0078 149.004 11.0078C148.973 11.0078 148.933 11.0625 148.887 11.1719L144.832 21.2734C144.769 21.4297 144.644 21.6016 144.457 21.7891C144.269 21.9609 144.082 22.0469 143.894 22.0469C143.879 22.0469 143.808 22.0312 143.683 22L138.527 10.4219L138.129 19.4453C138.129 19.6641 138.129 19.8438 138.129 19.9844C138.129 20.125 138.137 20.2266 138.152 20.2891C138.183 20.3828 138.293 20.4844 138.48 20.5938C138.683 20.7031 138.918 20.8047 139.183 20.8984C139.449 20.9922 139.699 21.0703 139.933 21.1328C140.183 21.1953 140.355 21.2266 140.449 21.2266C140.512 21.2266 140.543 21.3828 140.543 21.6953C140.543 21.8359 140.527 21.9688 140.496 22.0938C139.558 22.0938 138.848 22.0859 138.363 22.0703C137.894 22.0547 137.558 22.0391 137.355 22.0234C137.152 22.0078 137.004 22 136.91 22C136.816 21.9844 136.699 21.9766 136.558 21.9766C136.418 21.9766 136.168 21.9844 135.808 22C135.449 22.0156 134.887 22.0469 134.121 22.0938ZM160.36 22.1641C159.36 22.1641 158.461 21.9219 157.664 21.4375C156.868 20.9531 156.235 20.2969 155.766 19.4688C155.297 18.6406 155.063 17.7188 155.063 16.7031C155.063 15.7344 155.313 14.8594 155.813 14.0781C156.313 13.2969 156.985 12.6797 157.828 12.2266C158.688 11.7578 159.633 11.5234 160.664 11.5234C161.461 11.5234 162.196 11.6641 162.868 11.9453C163.539 12.2109 164.024 12.5312 164.321 12.9062C164.321 14.3438 163.899 15.0625 163.055 15.0625C162.446 15.0625 161.985 14.6719 161.672 13.8906C161.532 13.5312 161.352 13.2656 161.133 13.0938C160.93 12.9062 160.641 12.8125 160.266 12.8125C159.016 12.8125 158.391 13.9844 158.391 16.3281C158.391 18.9688 159.274 20.2891 161.039 20.2891C161.571 20.2891 162.063 20.2109 162.516 20.0547C162.828 19.9609 163.071 19.875 163.243 19.7969C163.414 19.7188 163.571 19.6328 163.711 19.5391C163.868 19.4297 164.047 19.2969 164.25 19.1406C164.391 19.2031 164.461 19.3516 164.461 19.5859C164.461 19.7891 164.43 19.9453 164.368 20.0547C164.274 20.3047 164.032 20.6016 163.641 20.9453C163.25 21.2734 162.766 21.5625 162.188 21.8125C161.625 22.0469 161.016 22.1641 160.36 22.1641ZM165.27 22.0938C165.208 22.0312 165.177 21.8984 165.177 21.6953C165.177 21.3828 165.208 21.2266 165.27 21.2266C165.395 21.2266 165.575 21.2031 165.809 21.1562C166.044 21.1094 166.262 21.0469 166.466 20.9688C166.669 20.875 166.786 20.7891 166.817 20.7109C166.911 20.3516 166.958 19.6641 166.958 18.6484V9.69531C166.958 8.74219 166.895 8.15625 166.77 7.9375C166.723 7.84375 166.598 7.75781 166.395 7.67969C166.208 7.58594 166.012 7.50781 165.809 7.44531C165.606 7.38281 165.442 7.35156 165.317 7.35156C165.255 7.35156 165.223 7.21875 165.223 6.95312C165.223 6.67188 165.239 6.51563 165.27 6.48438L168.669 6.625C168.825 6.64062 169.177 6.63281 169.723 6.60156C170.27 6.57031 171.012 6.53125 171.95 6.48438C171.997 6.625 172.02 6.76562 172.02 6.90625C172.02 7.20312 171.989 7.35156 171.927 7.35156C171.833 7.35156 171.669 7.38281 171.434 7.44531C171.2 7.50781 170.973 7.58594 170.755 7.67969C170.552 7.75781 170.434 7.83594 170.403 7.91406C170.341 8.11719 170.294 8.38281 170.262 8.71094C170.247 9.02344 170.239 9.38281 170.239 9.78906V18.6719C170.239 19.4219 170.302 19.9844 170.427 20.3594C170.489 20.6094 171.02 20.7344 172.02 20.7344H172.63C173.598 20.7344 174.473 20.5312 175.255 20.125C175.52 19.9844 175.817 19.7188 176.145 19.3281C176.489 18.9375 176.755 18.5 176.942 18.0156C176.973 17.9219 177.083 17.875 177.27 17.875C177.645 17.875 177.88 17.9219 177.973 18.0156C177.192 20.1719 176.77 21.5156 176.708 22.0469C176.27 22.0469 175.7 22.0391 174.997 22.0234C174.309 22.0234 173.489 22.0156 172.536 22C171.583 21.9844 170.786 21.9688 170.145 21.9531C169.52 21.9375 169.036 21.9375 168.692 21.9531L165.27 22.0938ZM181.572 22.1641C180.712 22.1641 180.025 21.9297 179.509 21.4609C179.009 20.9766 178.759 20.375 178.759 19.6562C178.759 19.0469 178.947 18.5156 179.322 18.0625C179.712 17.6094 180.197 17.25 180.775 16.9844C180.993 16.8906 181.197 16.8125 181.384 16.75C181.572 16.6719 181.743 16.6016 181.9 16.5391C182.493 16.3516 182.97 16.2188 183.329 16.1406C183.689 16.0469 183.954 15.9688 184.126 15.9062C184.267 15.8594 184.337 15.7422 184.337 15.5547V14.7109C184.337 13.4297 183.947 12.7891 183.165 12.7891C182.259 12.7891 181.806 13.3125 181.806 14.3594C181.806 14.7031 181.665 14.9609 181.384 15.1328C181.103 15.2891 180.79 15.3672 180.447 15.3672C179.728 15.3672 179.236 15.1328 178.97 14.6641C178.97 14.2578 179.111 13.8672 179.392 13.4922C179.689 13.1172 180.072 12.7812 180.54 12.4844C181.025 12.1719 181.564 11.9297 182.158 11.7578C182.767 11.5703 183.376 11.4766 183.986 11.4766C185.079 11.4766 185.915 11.7812 186.493 12.3906C187.087 12.9844 187.384 14.0703 187.384 15.6484V19.4453C187.384 19.9766 187.572 20.2422 187.947 20.2422C188.228 20.2422 188.493 20.1406 188.743 19.9375C188.853 20 188.908 20.1172 188.908 20.2891C188.908 20.6953 188.853 20.9844 188.743 21.1562C188.525 21.3594 188.165 21.5781 187.665 21.8125C187.181 22.0312 186.72 22.1406 186.283 22.1406C185.908 22.1406 185.548 22.0312 185.204 21.8125C184.861 21.5781 184.634 21.3125 184.525 21.0156C184.509 21.0156 184.423 21.0703 184.267 21.1797C184.111 21.2891 183.993 21.375 183.915 21.4375C183.603 21.6406 183.243 21.8125 182.837 21.9531C182.431 22.0938 182.009 22.1641 181.572 22.1641ZM183.048 20.4766C183.454 20.4766 183.767 20.3828 183.986 20.1953C184.22 19.9922 184.337 19.75 184.337 19.4688V17.1016L183.118 17.5234C182.79 17.6328 182.486 17.7969 182.204 18.0156C181.939 18.2344 181.806 18.5234 181.806 18.8828C181.806 19.4453 181.923 19.8516 182.158 20.1016C182.408 20.3516 182.704 20.4766 183.048 20.4766ZM198.06 22.1172C197.967 22.1172 197.92 21.9766 197.92 21.6953V20.8281C197.92 20.7031 197.888 20.6719 197.826 20.7344C197.498 21.0781 197.013 21.3906 196.373 21.6719C195.748 21.9531 195.068 22.0938 194.334 22.0938C193.724 22.0938 193.185 21.9062 192.717 21.5312C192.263 21.1562 191.912 20.6562 191.662 20.0312C191.412 19.3906 191.287 18.6875 191.287 17.9219V15.6484C191.287 14.7734 191.146 14.1875 190.865 13.8906C190.74 13.7344 190.568 13.625 190.349 13.5625C190.146 13.5 189.967 13.4609 189.81 13.4453C189.654 13.4141 189.576 13.3828 189.576 13.3516C189.576 12.8047 189.615 12.5312 189.693 12.5312C189.834 12.5312 190.092 12.5 190.467 12.4375C190.857 12.375 191.279 12.3047 191.732 12.2266C192.185 12.1328 192.615 12.0391 193.021 11.9453C193.443 11.8359 193.763 11.75 193.982 11.6875C194.029 11.6719 194.068 11.6562 194.099 11.6406C194.146 11.625 194.193 11.6172 194.24 11.6172C194.318 11.6172 194.396 11.6719 194.474 11.7812C194.553 11.875 194.592 11.9531 194.592 12.0156C194.513 12.7031 194.451 13.2422 194.404 13.6328C194.357 14.0234 194.334 14.2656 194.334 14.3594V16.8672C194.334 18.0859 194.49 18.9453 194.803 19.4453C195.115 19.9297 195.638 20.1719 196.373 20.1719C196.904 20.1719 197.303 20.0547 197.568 19.8203C197.834 19.5703 197.967 19.2969 197.967 19V15.6484C197.967 14.7734 197.826 14.1875 197.545 13.8906C197.42 13.7344 197.248 13.625 197.029 13.5625C196.826 13.5 196.646 13.4609 196.49 13.4453C196.334 13.4141 196.256 13.3828 196.256 13.3516C196.256 12.8047 196.295 12.5312 196.373 12.5312C196.513 12.5312 196.771 12.5 197.146 12.4375C197.537 12.375 197.959 12.3047 198.412 12.2266C198.865 12.1328 199.295 12.0391 199.701 11.9453C200.123 11.8359 200.443 11.75 200.662 11.6875L200.92 11.6172C200.998 11.6172 201.076 11.6719 201.154 11.7812C201.232 11.875 201.271 11.9531 201.271 12.0156C201.193 12.7031 201.131 13.2422 201.084 13.6328C201.037 14.0234 201.013 14.2578 201.013 14.3359V18.9297C201.013 19.7578 201.092 20.25 201.248 20.4062C201.326 20.4844 201.451 20.5469 201.623 20.5938C201.795 20.625 201.967 20.6406 202.138 20.6406H202.373C202.435 20.6562 202.467 20.7188 202.467 20.8281C202.467 21.2812 202.42 21.5078 202.326 21.5078C201.357 21.6016 200.545 21.6953 199.888 21.7891C199.248 21.8828 198.748 21.9688 198.388 22.0469L198.06 22.1172ZM207.33 27.1094C206.549 27.1094 205.838 27 205.197 26.7812C204.557 26.5781 204.049 26.2812 203.674 25.8906C203.299 25.5 203.112 25.0469 203.112 24.5312C203.112 24.1875 203.291 23.8203 203.651 23.4297C204.026 23.0391 204.487 22.7578 205.033 22.5859C204.627 22.4141 204.26 22.1406 203.932 21.7656C203.604 21.375 203.44 20.9531 203.44 20.5C203.44 20.1094 203.612 19.7734 203.955 19.4922C204.315 19.2109 204.737 18.9375 205.221 18.6719C204.924 18.5 204.635 18.2422 204.354 17.8984C204.072 17.5547 203.846 17.1641 203.674 16.7266C203.502 16.2734 203.416 15.8281 203.416 15.3906C203.416 14.5312 203.612 13.8125 204.002 13.2344C204.393 12.6562 204.916 12.2188 205.572 11.9219C206.244 11.625 206.987 11.4766 207.799 11.4766C208.377 11.4766 209.041 11.5781 209.791 11.7812C210.166 11.8906 210.502 11.9688 210.799 12.0156C211.112 12.0625 211.377 12.0859 211.596 12.0859H212.885C212.916 12.0859 212.963 12.1562 213.026 12.2969C213.104 12.4375 213.174 12.5859 213.237 12.7422C213.299 12.8828 213.33 12.9922 213.33 13.0703C213.33 13.2891 213.283 13.3984 213.19 13.3984H211.807C211.744 13.4141 211.713 13.4375 211.713 13.4688L211.901 14.1016C211.947 14.3047 211.987 14.5078 212.018 14.7109C212.049 14.9141 212.065 15.1016 212.065 15.2734C212.065 15.9297 211.877 16.5547 211.502 17.1484C211.143 17.7422 210.651 18.2344 210.026 18.625C209.401 19 208.682 19.1875 207.869 19.1875C207.557 19.1875 207.268 19.1797 207.002 19.1641C206.737 19.1328 206.494 19.1016 206.276 19.0703C206.072 19.1328 205.924 19.2422 205.83 19.3984C205.752 19.5547 205.713 19.6797 205.713 19.7734C205.713 19.9141 205.846 20.0234 206.112 20.1016C206.33 20.1641 206.658 20.2188 207.096 20.2656C207.533 20.3125 207.971 20.3438 208.408 20.3594C208.846 20.375 209.182 20.3828 209.416 20.3828C211.901 20.4922 213.158 21.3125 213.19 22.8438C213.19 23.4219 213.018 23.9688 212.674 24.4844C212.346 25 211.893 25.4531 211.315 25.8438C210.752 26.2344 210.119 26.5391 209.416 26.7578C208.729 26.9922 208.033 27.1094 207.33 27.1094ZM207.776 17.9688C208.369 17.9688 208.729 17.75 208.854 17.3125C208.979 16.875 209.041 16.3438 209.041 15.7188C209.041 14.7188 208.947 13.9688 208.76 13.4688C208.572 12.9688 208.197 12.7188 207.635 12.7188C207.26 12.7188 206.987 12.8281 206.815 13.0469C206.643 13.2656 206.533 13.5469 206.487 13.8906C206.455 14.2344 206.44 14.6016 206.44 14.9922V15.1094C206.44 15.6094 206.471 16.0781 206.533 16.5156C206.596 16.9531 206.721 17.3047 206.908 17.5703C207.096 17.8359 207.385 17.9688 207.776 17.9688ZM207.729 25.6797C208.541 25.6797 209.197 25.5312 209.697 25.2344C210.213 24.9375 210.471 24.4922 210.471 23.8984C210.471 23.1953 209.158 22.8438 206.533 22.8438C206.143 22.9531 205.846 23.0859 205.643 23.2422C205.44 23.3984 205.338 23.6562 205.338 24.0156C205.338 24.4844 205.58 24.875 206.065 25.1875C206.565 25.5156 207.119 25.6797 207.729 25.6797ZM214.163 22.0938C214.1 22.0312 214.069 21.8672 214.069 21.6016C214.069 21.3516 214.1 21.2266 214.163 21.2266C214.288 21.2266 214.467 21.1953 214.702 21.1328C214.936 21.0547 215.155 20.9688 215.358 20.875C215.561 20.7812 215.671 20.7031 215.686 20.6406C215.796 20.2031 215.85 19.6094 215.85 18.8594V9.55469C215.85 9.19531 215.835 8.875 215.803 8.59375C215.788 8.3125 215.764 8.07031 215.733 7.86719C215.671 7.61719 215.264 7.49219 214.514 7.49219H214.303C214.21 7.49219 214.163 7.33594 214.163 7.02344C214.163 6.75781 214.21 6.625 214.303 6.625C215.21 6.54687 216.061 6.41406 216.858 6.22656C217.671 6.03906 218.249 5.89062 218.592 5.78125L218.827 5.71094H218.874C218.936 5.71094 218.999 5.75781 219.061 5.85156C219.124 5.94531 219.163 6.03125 219.178 6.10938C218.991 6.8125 218.897 7.60156 218.897 8.47656V12.8359C218.897 12.9453 218.928 13 218.991 13C219.007 13 219.046 12.9688 219.108 12.9062C219.452 12.5156 219.936 12.1953 220.561 11.9453C221.186 11.6797 221.835 11.5469 222.507 11.5469C223.413 11.5469 224.147 11.9297 224.71 12.6953C225.288 13.4609 225.577 14.625 225.577 16.1875V18.5078C225.577 19.5391 225.632 20.25 225.741 20.6406C225.772 20.7031 225.889 20.7812 226.092 20.875C226.296 20.9688 226.507 21.0547 226.725 21.1328C226.96 21.1953 227.124 21.2266 227.217 21.2266C227.249 21.2266 227.272 21.2891 227.288 21.4141C227.303 21.5391 227.311 21.6719 227.311 21.8125C227.311 21.9531 227.296 22.0469 227.264 22.0938C227.171 22.0938 226.991 22.0781 226.725 22.0469C226.46 22.0312 226.147 22.0156 225.788 22C225.444 21.9688 225.116 21.9453 224.803 21.9297C224.491 21.9141 224.241 21.9062 224.053 21.9062C223.803 21.9062 223.452 21.9219 222.999 21.9531C222.561 21.9844 222.139 22.0078 221.733 22.0234C221.327 22.0547 221.061 22.0781 220.936 22.0938C220.874 22.0312 220.842 21.8672 220.842 21.6016C220.842 21.3516 220.874 21.2266 220.936 21.2266C221.061 21.2266 221.225 21.1953 221.428 21.1328C221.647 21.0547 221.85 20.9688 222.038 20.875C222.241 20.7812 222.35 20.7031 222.366 20.6406C222.475 20.2031 222.53 19.6094 222.53 18.8594V16.75C222.53 15.5938 222.374 14.7734 222.061 14.2891C221.749 13.7891 221.241 13.5391 220.538 13.5391C219.444 13.5391 218.897 13.8828 218.897 14.5703V18.5078C218.897 19.5391 218.952 20.25 219.061 20.6406C219.092 20.7031 219.202 20.7812 219.389 20.875C219.577 20.9688 219.78 21.0547 219.999 21.1328C220.217 21.1953 220.366 21.2266 220.444 21.2266C220.475 21.2266 220.499 21.2891 220.514 21.4141C220.53 21.5391 220.538 21.6719 220.538 21.8125C220.538 21.9531 220.522 22.0469 220.491 22.0938C220.366 22.0781 220.1 22.0547 219.694 22.0234C219.288 22.0078 218.858 21.9844 218.405 21.9531C217.967 21.9219 217.624 21.9062 217.374 21.9062C217.186 21.9062 216.928 21.9141 216.6 21.9297C216.288 21.9453 215.96 21.9688 215.616 22C215.272 22.0156 214.967 22.0312 214.702 22.0469C214.436 22.0781 214.257 22.0938 214.163 22.0938ZM227.534 22.0938C227.472 22.0312 227.441 21.8672 227.441 21.6016C227.441 21.3516 227.472 21.2266 227.534 21.2266C227.659 21.2266 227.839 21.1953 228.073 21.1328C228.308 21.0547 228.527 20.9688 228.73 20.875C228.933 20.7812 229.042 20.7031 229.058 20.6406C229.167 20.2031 229.222 19.6094 229.222 18.8594V9.55469C229.222 9.19531 229.206 8.875 229.175 8.59375C229.159 8.3125 229.136 8.07031 229.105 7.86719C229.042 7.61719 228.636 7.49219 227.886 7.49219H227.675C227.581 7.49219 227.534 7.33594 227.534 7.02344C227.534 6.75781 227.581 6.625 227.675 6.625C228.581 6.54687 229.433 6.41406 230.23 6.22656C231.042 6.03906 231.62 5.89062 231.964 5.78125L232.198 5.71094H232.245C232.308 5.71094 232.37 5.75781 232.433 5.85156C232.495 5.94531 232.534 6.03125 232.55 6.10938C232.378 6.84375 232.292 7.63281 232.292 8.47656L232.269 18.5078C232.269 19.5391 232.323 20.25 232.433 20.6406C232.464 20.7031 232.581 20.7812 232.784 20.875C232.988 20.9688 233.198 21.0547 233.417 21.1328C233.652 21.1953 233.816 21.2266 233.909 21.2266C233.941 21.2266 233.964 21.2891 233.98 21.4141C233.995 21.5391 234.003 21.6719 234.003 21.8125C234.003 21.9531 233.988 22.0469 233.956 22.0938C233.863 22.0938 233.683 22.0781 233.417 22.0469C233.152 22.0312 232.839 22.0156 232.48 22C232.136 21.9688 231.808 21.9453 231.495 21.9297C231.183 21.9141 230.933 21.9062 230.745 21.9062C230.558 21.9062 230.3 21.9141 229.972 21.9297C229.659 21.9453 229.331 21.9688 228.988 22C228.644 22.0156 228.339 22.0312 228.073 22.0469C227.808 22.0781 227.628 22.0938 227.534 22.0938ZM234.929 22.0938C234.867 22.0312 234.836 21.8828 234.836 21.6484C234.836 21.4141 234.867 21.2969 234.929 21.2969C235.054 21.2969 235.218 21.2656 235.422 21.2031C235.625 21.1406 235.82 21.0625 236.008 20.9688C236.195 20.875 236.297 20.7891 236.312 20.7109C236.422 20.2734 236.476 19.6797 236.476 18.9297V15.5078C236.476 14.6328 236.336 14.0469 236.054 13.75C235.929 13.5938 235.758 13.4844 235.539 13.4219C235.336 13.3594 235.156 13.3203 235 13.3047C234.843 13.2734 234.765 13.2422 234.765 13.2109C234.765 12.7578 234.804 12.5312 234.883 12.5312C235.023 12.5312 235.281 12.5 235.656 12.4375C236.031 12.375 236.445 12.2969 236.898 12.2031C237.367 12.1094 237.804 12.0156 238.211 11.9219C238.633 11.8281 238.953 11.75 239.172 11.6875L239.429 11.6172C239.508 11.6172 239.586 11.6719 239.664 11.7812C239.742 11.875 239.781 11.9531 239.781 12.0156C239.703 12.7031 239.64 13.2422 239.593 13.6328C239.547 14.0234 239.523 14.2656 239.523 14.3594V18.5781C239.523 19.4688 239.586 20.1797 239.711 20.7109C239.742 20.7734 239.843 20.8516 240.015 20.9453C240.203 21.0391 240.398 21.125 240.601 21.2031C240.804 21.2656 240.945 21.2969 241.023 21.2969C241.07 21.2969 241.093 21.4141 241.093 21.6484C241.109 21.8828 241.101 22.0312 241.07 22.0938C240.945 22.0781 240.679 22.0547 240.273 22.0234C239.883 22.0078 239.468 21.9844 239.031 21.9531C238.593 21.9219 238.25 21.9062 238 21.9062C237.75 21.9062 237.406 21.9219 236.968 21.9531C236.531 21.9844 236.117 22.0078 235.726 22.0234C235.336 22.0547 235.07 22.0781 234.929 22.0938ZM237.883 9.29688C237.398 9.29688 236.984 9.13281 236.64 8.80469C236.312 8.46094 236.148 8.04688 236.148 7.5625C236.148 7.07813 236.312 6.67188 236.64 6.34375C236.984 6 237.398 5.82812 237.883 5.82812C238.367 5.82812 238.773 6 239.101 6.34375C239.445 6.67188 239.617 7.07813 239.617 7.5625C239.617 8.04688 239.445 8.46094 239.101 8.80469C238.773 9.13281 238.367 9.29688 237.883 9.29688ZM241.926 22.0938C241.863 22.0312 241.832 21.8672 241.832 21.6016C241.832 21.3516 241.863 21.2266 241.926 21.2266C242.051 21.2266 242.223 21.1953 242.442 21.1328C242.676 21.0547 242.895 20.9688 243.098 20.875C243.317 20.7812 243.434 20.7031 243.449 20.6406C243.559 20.2031 243.613 19.6094 243.613 18.8594V15.6484C243.613 14.7734 243.473 14.1875 243.192 13.8906C243.067 13.7344 242.895 13.625 242.676 13.5625C242.473 13.5 242.293 13.4609 242.137 13.4453C241.981 13.4141 241.902 13.3828 241.902 13.3516C241.902 12.8047 241.942 12.5312 242.02 12.5312C242.426 12.5312 243.004 12.4453 243.754 12.2734C244.504 12.0859 245.356 11.8906 246.309 11.6875L246.426 11.6641C246.442 11.6484 246.473 11.6406 246.52 11.6406L246.567 11.6172C246.645 11.6172 246.723 11.6719 246.801 11.7812C246.895 11.875 246.934 11.9531 246.918 12.0156L246.824 12.7422C246.824 12.8203 246.832 12.8672 246.848 12.8828C246.879 12.8828 246.934 12.8438 247.012 12.7656C247.871 11.9531 248.957 11.5469 250.27 11.5469C251.176 11.5469 251.91 11.9297 252.473 12.6953C253.051 13.4609 253.34 14.625 253.34 16.1875V18.5078C253.34 19.5391 253.395 20.25 253.504 20.6406C253.535 20.7031 253.652 20.7812 253.856 20.875C254.059 20.9688 254.27 21.0547 254.488 21.1328C254.723 21.1953 254.887 21.2266 254.981 21.2266C255.012 21.2266 255.035 21.2891 255.051 21.4141C255.067 21.5391 255.074 21.6719 255.074 21.8125C255.074 21.9531 255.059 22.0469 255.027 22.0938C254.934 22.0938 254.754 22.0781 254.488 22.0469C254.223 22.0312 253.91 22.0156 253.551 22C253.207 21.9688 252.879 21.9453 252.567 21.9297C252.254 21.9141 252.004 21.9062 251.817 21.9062C251.567 21.9062 251.215 21.9219 250.762 21.9531C250.324 21.9844 249.902 22.0078 249.496 22.0234C249.09 22.0547 248.824 22.0781 248.699 22.0938C248.637 22.0312 248.606 21.8672 248.606 21.6016C248.606 21.3516 248.637 21.2266 248.699 21.2266C248.824 21.2266 248.988 21.1953 249.192 21.1328C249.41 21.0547 249.613 20.9688 249.801 20.875C250.004 20.7812 250.113 20.7031 250.129 20.6406C250.238 20.2031 250.293 19.6094 250.293 18.8594V16.75C250.293 15.5938 250.129 14.7734 249.801 14.2891C249.488 13.7891 248.981 13.5391 248.277 13.5391C247.793 13.5391 247.402 13.6328 247.106 13.8203C246.809 13.9922 246.66 14.2422 246.66 14.5703V18.5078C246.66 19.5391 246.715 20.25 246.824 20.6406C246.856 20.7031 246.965 20.7812 247.152 20.875C247.34 20.9688 247.543 21.0547 247.762 21.1328C247.981 21.1953 248.129 21.2266 248.207 21.2266C248.238 21.2266 248.262 21.2891 248.277 21.4141C248.293 21.5391 248.301 21.6719 248.301 21.8125C248.301 21.9531 248.285 22.0469 248.254 22.0938C248.129 22.0781 247.863 22.0547 247.457 22.0234C247.051 22.0078 246.621 21.9844 246.168 21.9531C245.731 21.9219 245.387 21.9062 245.137 21.9062C244.949 21.9062 244.692 21.9141 244.363 21.9297C244.051 21.9453 243.723 21.9688 243.379 22C243.035 22.0156 242.731 22.0312 242.465 22.0469C242.199 22.0781 242.02 22.0938 241.926 22.0938Z" fill="#0E0616"/>
</svg>
