<svg width="230" height="27" viewBox="0 0 230 27" fill="none" xmlns="http://www.w3.org/2000/svg">
<g clip-path="url(#clip0_3_329)">
<path d="M26.2993 13.0436C14.2591 9.03017 13.2557 4.34785 13.2557 0C13.2557 12.3479 4.7774 13.0436 0.212158 13.0436C11.249 16.0536 13.2557 21.9567 13.2557 26.0872C13.2557 13.3914 21.9514 13.0436 26.2993 13.0436Z" fill="#0E0616" stroke="#0E0616" stroke-width="1.2" stroke-miterlimit="6.00562"/>
<path d="M36.3508 7.01276H40.8507C42.0331 7.01276 42.8526 6.89005 43.5 7.5C44.1597 8.10995 44.585 9.37159 44.585 10.4297C44.585 11.189 44.3983 11.7927 44.0249 12.2408C43.6514 12.6889 43.1473 13.0063 42.5125 13.193V13.2864C43.2718 13.4607 43.8816 13.7968 44.3423 14.2947C44.8029 14.7801 45.0331 15.471 45.0331 16.3672C45.0331 16.9025 44.9459 17.3942 44.7717 17.8423C44.5975 18.2904 44.3484 18.6825 44.0249 19.0186C43.7013 19.3422 43.3092 19.5974 42.8485 19.7841C42.4004 19.9584 41.9024 20.0455 41.3548 20.0455H36.3508V7.01276ZM40.72 18.4398C41.417 18.4398 41.9523 18.2966 42.3257 18.0103C42.6992 17.724 42.8859 17.2635 42.8859 16.6286V15.9564C42.8859 15.3216 42.6992 14.861 42.3257 14.5747C41.9523 14.2885 41.417 14.1453 40.72 14.1453H38.4047V18.4398H40.72ZM40.4212 12.6142C41.0809 12.6142 41.5789 12.4897 41.915 12.2408C42.2636 11.9794 42.4378 11.55 42.4378 10.9525V10.2803C42.4378 9.68279 42.2636 9.25956 41.915 9.01061C41.5789 8.74921 41.0809 8.61851 40.4212 8.61851H38.4047V12.6142H40.4212ZM49.2644 20.0455H47.1918V7.01276H52.0651C53.3097 7.01276 54.0657 7.01276 55 8C55.6597 8.69707 55.8928 9.71392 55.8928 10.9338C55.8928 11.9296 55.65 12.7511 55.1646 13.3984C54.6791 14.0457 53.9819 14.444 53.0734 14.5934L56.0795 20.0455H53.7642L51.0008 14.7801H49.2644V20.0455ZM51.7663 13.0997C53.0608 13.0997 53.7082 12.5084 53.7082 11.3259V10.523C53.7082 9.34049 53.0608 8.74921 51.7663 8.74921H49.2644V13.0997H51.7663ZM58.0512 20.0455V7.01276H66.2107V8.76788H60.1425V12.5582H65.9867V14.3133H60.1425V18.2904H66.2107V20.0455H58.0512ZM70.61 10.0189H70.442V20.0455H68.6122V7.01276H71.3009L75.1285 17.0394H75.2966V7.01276H77.1264V20.0455H74.4377L70.61 10.0189ZM79.6212 7.01276H83.5049C85.1728 7.01276 86.4051 7.56669 87.2018 8.67453C88.0109 9.78237 88.4155 11.4006 88.4155 13.5291C88.4155 15.6577 88.0109 17.2759 87.2018 18.3837C86.4051 19.4916 85.1728 20.0455 83.5049 20.0455H79.6212V7.01276ZM83.3742 18.3277C84.3326 18.3277 85.0421 18.0103 85.5027 17.3755C85.9757 16.7282 86.2122 15.8071 86.2122 14.6121V12.4462C86.2122 11.2512 85.9757 10.3363 85.5027 9.70146C85.0421 9.05417 84.3326 8.73054 83.3742 8.73054H81.6937V18.3277H83.3742ZM97.5385 20.0455L96.5489 16.5726H92.4038L91.4142 20.0455H89.2856L93.0946 7.01276H95.9514L99.7604 20.0455H97.5385ZM94.551 9.12264H94.4016L92.7959 14.8361H96.1568L94.551 9.12264ZM103.077 10.0189H102.909V20.0455H101.079V7.01276H103.768L107.595 17.0394H107.763V7.01276H109.593V20.0455H106.904L103.077 10.0189ZM129.688 13.8092L129.744 9.88818H129.594L126.98 16.5913L124.366 9.88818H124.217L124.273 13.8092V20.0455H122.425V7.01276H124.983L126.98 12.1848H127.111L129.128 7.01276H131.536V20.0455H129.688V13.8092ZM138.176 20.2696C136.52 20.2696 135.288 19.6845 134.479 18.5145C133.682 17.3444 133.284 15.6826 133.284 13.5291C133.284 11.3757 133.682 9.71392 134.479 8.54383C135.288 7.37373 136.52 6.7887 138.176 6.7887C138.811 6.7887 139.359 6.87584 139.819 7.0501C140.292 7.21193 140.697 7.4422 141.033 7.74095C141.369 8.02724 141.649 8.36956 141.873 8.76788C142.109 9.15377 142.303 9.57076 142.452 10.0189L140.566 10.6537C140.466 10.355 140.354 10.0749 140.23 9.81349C140.105 9.55209 139.95 9.32803 139.763 9.14132C139.576 8.9546 139.352 8.80523 139.091 8.6932C138.842 8.58117 138.531 8.52515 138.157 8.52515C137.236 8.52515 136.564 8.87991 136.141 9.58943C135.718 10.2865 135.506 11.2325 135.506 12.4275V14.6308C135.506 15.8257 135.718 16.778 136.141 17.4875C136.564 18.1846 137.236 18.5331 138.157 18.5331C138.531 18.5331 138.842 18.4771 139.091 18.3651C139.352 18.253 139.576 18.1037 139.763 17.917C139.95 17.7302 140.105 17.5062 140.23 17.2448C140.354 16.9834 140.466 16.7033 140.566 16.4046L142.452 17.0394C142.303 17.4875 142.109 17.9107 141.873 18.3091C141.649 18.695 141.369 19.0373 141.033 19.336C140.697 19.6223 140.292 19.8526 139.819 20.0268C139.359 20.1887 138.811 20.2696 138.176 20.2696ZM145.04 20.0455V7.01276H147.131V18.2904H153.069V20.0455H145.04ZM162.472 20.0455L161.482 16.5726H157.337L156.348 20.0455H154.219L158.028 7.01276H160.885L164.694 20.0455H162.472ZM159.484 9.12264H159.335L157.729 14.8361H161.09L159.484 9.12264ZM168.047 7.01276V15.0229C168.047 15.5581 168.06 16.0436 168.085 16.4792C168.122 16.9149 168.216 17.2883 168.365 17.5995C168.514 17.8983 168.738 18.1286 169.037 18.2904C169.336 18.4522 169.747 18.5331 170.269 18.5331C170.792 18.5331 171.203 18.4522 171.502 18.2904C171.8 18.1286 172.025 17.8983 172.174 17.5995C172.323 17.2883 172.41 16.9149 172.435 16.4792C172.473 16.0436 172.491 15.5581 172.491 15.0229V7.01276H174.583V14.6494C174.583 15.583 174.527 16.4046 174.414 17.1141C174.315 17.8111 174.109 18.3962 173.798 18.8692C173.487 19.3298 173.045 19.6783 172.473 19.9148C171.912 20.1513 171.178 20.2696 170.269 20.2696C169.361 20.2696 168.62 20.1513 168.047 19.9148C167.487 19.6783 167.051 19.3298 166.74 18.8692C166.429 18.3962 166.218 17.8111 166.106 17.1141C166.006 16.4046 165.956 15.583 165.956 14.6494V7.01276H168.047ZM183.519 18.253H183.388C183.276 18.5145 183.139 18.7696 182.977 19.0186C182.828 19.2551 182.635 19.4667 182.398 19.6534C182.174 19.8401 181.901 19.9895 181.577 20.1015C181.253 20.2136 180.88 20.2696 180.457 20.2696C179.1 20.2696 178.079 19.6908 177.395 18.5331C176.71 17.3755 176.368 15.7386 176.368 13.6225C176.368 11.4068 176.76 9.71392 177.544 8.54383C178.328 7.37373 179.529 6.7887 181.147 6.7887C181.782 6.7887 182.336 6.87584 182.809 7.0501C183.295 7.22436 183.706 7.46087 184.042 7.75962C184.378 8.04591 184.658 8.38824 184.882 8.78656C185.106 9.17244 185.286 9.58322 185.423 10.0189L183.537 10.6537C183.438 10.3674 183.326 10.0998 183.201 9.85084C183.077 9.58943 182.921 9.35916 182.735 9.15999C182.56 8.96082 182.342 8.80523 182.081 8.6932C181.832 8.58117 181.527 8.52515 181.166 8.52515C180.257 8.52515 179.598 8.87991 179.187 9.58943C178.789 10.2865 178.589 11.2325 178.589 12.4275V14.5001C178.589 15.0976 178.633 15.6452 178.72 16.1432C178.807 16.6411 178.95 17.0705 179.15 17.4315C179.361 17.78 179.629 18.0539 179.953 18.253C180.289 18.4522 180.693 18.5518 181.166 18.5518C181.926 18.5518 182.504 18.3277 182.903 17.8796C183.313 17.419 183.519 16.834 183.519 16.1245V14.9482H180.998V13.3798H185.423V20.0455H183.519V18.253ZM194.08 14.3133H189.748V20.0455H187.657V7.01276H189.748V12.5582H194.08V7.01276H196.171V20.0455H194.08V14.3133ZM199.151 20.0455V7.01276H201.242V18.2904H207.18V20.0455H199.151ZM209.45 20.0455V18.4584H212.512V8.59984H209.45V7.01276H217.666V8.59984H214.604V18.4584H217.666V20.0455H209.45ZM222.122 10.0189H221.952V20.0455H220.123V7.01276H222.811L226.639 17.0394H226.807V7.01276H228.638V20.0455H225.95L222.122 10.0189Z" fill="#0E0616"/>
</g>
<defs>
<clipPath id="clip0_3_329">
<rect width="230" height="26.0978" fill="white"/>
</clipPath>
</defs>
</svg>
