<svg width="22" height="23" viewBox="0 0 22 23" fill="none" xmlns="http://www.w3.org/2000/svg">
<g clip-path="url(#clip0_1_228)">
<path d="M10.9902 0.350953C4.91808 0.348498 0 5.26412 0 11.3313C0 16.1291 3.07656 20.2074 7.36116 21.7052C7.93817 21.8501 7.84978 21.44 7.84978 21.1601V19.2572C4.51786 19.6476 4.38281 17.4427 4.15937 17.0744C3.70759 16.3034 2.63951 16.107 2.95871 15.7387C3.71741 15.3483 4.49085 15.8369 5.38705 17.1603C6.03527 18.1204 7.29978 17.9583 7.94062 17.7987C8.08058 17.2217 8.38013 16.7061 8.79263 16.3059C5.3404 15.6871 3.90156 13.5804 3.90156 11.076C3.90156 9.86055 4.30179 8.74336 5.0875 7.84225C4.58661 6.35676 5.13415 5.08488 5.20781 4.89582C6.63438 4.76814 8.11741 5.91725 8.23281 6.0081C9.04308 5.78957 9.96875 5.67417 11.0049 5.67417C12.046 5.67417 12.9741 5.79448 13.7917 6.01546C14.0692 5.8043 15.4442 4.81725 16.7701 4.93756C16.8413 5.12662 17.3766 6.36903 16.9051 7.83488C17.7007 8.73845 18.1058 9.86546 18.1058 11.0833C18.1058 13.5927 16.6571 15.7018 13.1951 16.3108C13.4916 16.6024 13.7271 16.9502 13.8877 17.3338C14.0483 17.7175 14.1309 18.1292 14.1306 18.5451V21.3074C14.1502 21.5284 14.1306 21.7469 14.4989 21.7469C18.8473 20.2811 21.9779 16.1733 21.9779 11.3338C21.9779 5.26412 17.0574 0.350953 10.9902 0.350953Z" fill="black"/>
</g>
<defs>
<clipPath id="clip0_1_228">
<rect width="22" height="22" fill="white" transform="translate(0 0.0489502)"/>
</clipPath>
</defs>
</svg>
