<svg width="22" height="23" viewBox="0 0 22 23" fill="none" xmlns="http://www.w3.org/2000/svg">
<path d="M20.0357 1.22754H1.9643C1.5297 1.22754 1.17859 1.57866 1.17859 2.01325V20.0847C1.17859 20.5193 1.5297 20.8704 1.9643 20.8704H20.0357C20.4703 20.8704 20.8214 20.5193 20.8214 20.0847V2.01325C20.8214 1.57866 20.4703 1.22754 20.0357 1.22754ZM7.00515 17.9657H4.09064V8.59116H7.00515V17.9657ZM5.54912 7.30946C5.21502 7.30946 4.88841 7.21038 4.61061 7.02476C4.33281 6.83914 4.11629 6.57531 3.98843 6.26663C3.86057 5.95796 3.82712 5.6183 3.8923 5.29061C3.95748 4.96292 4.11837 4.66192 4.35462 4.42567C4.59087 4.18942 4.89187 4.02853 5.21956 3.96335C5.54725 3.89816 5.88691 3.93162 6.19559 4.05948C6.50426 4.18733 6.76809 4.40385 6.95371 4.68166C7.13934 4.95946 7.23841 5.28606 7.23841 5.62017C7.23596 6.55321 6.47971 7.30946 5.54912 7.30946ZM17.9168 17.9657H15.0047V13.4061C15.0047 12.3184 14.9851 10.9213 13.4898 10.9213C11.9748 10.9213 11.7415 12.1048 11.7415 13.3275V17.9657H8.83194V8.59116H11.6261V9.87285H11.6654C12.0534 9.13625 13.0036 8.3579 14.4228 8.3579C17.3741 8.3579 17.9168 10.3001 17.9168 12.8242V17.9657Z" fill="black"/>
</svg>
